<svg xmlns="http://www.w3.org/2000/svg" width="3391.157" height="3519.747" viewBox="0 0 3391.157 3519.747">
  <g id="Grupo_25" data-name="Grupo 25" transform="translate(1028.097 1075.225)">
    <g id="Detalhes" transform="translate(1208.567 -1075.225) rotate(30)" fill="none" opacity="0.1">
      <path d="M289.6,57.336A114.671,114.671,0,0,1,389.207,0L941.382,1.447a114.672,114.672,0,0,1,98.858,57.075L1317.58,536a114.671,114.671,0,0,1,.151,114.931l-274.235,474.99a114.671,114.671,0,0,1-99.608,57.335l-552.176-1.446a114.671,114.671,0,0,1-98.857-57.075L15.514,647.256a114.671,114.671,0,0,1-.15-114.931Z" stroke="none"/>
      <path d="M 388.9057006835938 4 C 379.1503295898438 4 369.4368286132813 5.2886962890625 360.0350341796875 7.830322265625 C 350.7845458984375 10.330810546875 341.8822021484375 14.0302734375 333.5753784179688 18.8258056640625 C 325.2678833007813 23.6217041015625 317.6118774414063 29.4813232421875 310.8201904296875 36.2423095703125 C 303.9161376953125 43.114990234375 297.9415283203125 50.8846435546875 293.0623779296875 59.335693359375 L 18.8271484375 534.324951171875 C 13.9356689453125 542.7973022460938 10.1878662109375 551.8794555664063 7.687744140625 561.3193359375 C 5.2281494140625 570.6058349609375 3.987548828125 580.1900024414063 4 589.8054809570313 C 4.0126953125 599.421142578125 5.278564453125 609.001953125 7.76220703125 618.281982421875 C 10.2869873046875 627.71533203125 14.0587158203125 636.7876586914063 18.972412109375 645.2471313476563 L 296.3125 1122.722290039063 C 301.188232421875 1131.116455078125 307.1468505859375 1138.834838867188 314.0230102539063 1145.662963867188 C 320.7890014648438 1152.381591796875 328.4105224609375 1158.2080078125 336.6757202148438 1162.979858398438 C 344.9408569335938 1167.751831054688 353.79736328125 1171.43896484375 362.9988403320313 1173.939208984375 C 372.350341796875 1176.47998046875 382.0140380859375 1177.781127929688 391.7214965820313 1177.806640625 L 943.8995361328125 1179.252807617188 C 943.9978637695313 1179.253173828125 944.0897216796875 1179.253173828125 944.18798828125 1179.253173828125 C 953.943359375 1179.253173828125 963.656982421875 1177.964477539063 973.058837890625 1175.4228515625 C 982.3092041015625 1172.92236328125 991.2113647460938 1169.222778320313 999.5181884765625 1164.427368164063 C 1007.825561523438 1159.631469726563 1015.481567382813 1153.771850585938 1022.273193359375 1147.010864257813 C 1029.17724609375 1140.13818359375 1035.151733398438 1132.368530273438 1040.030883789063 1123.91748046875 L 1314.266357421875 648.927978515625 C 1319.157836914063 640.4556274414063 1322.905639648438 631.3734741210938 1325.405883789063 621.9336547851563 C 1327.865356445313 612.6471557617188 1329.106079101563 603.06298828125 1329.093383789063 593.447509765625 C 1329.080810546875 583.831787109375 1327.815063476563 574.2509765625 1325.331176757813 564.9710083007813 C 1322.806396484375 555.5376586914063 1319.03466796875 546.46533203125 1314.120971679688 538.0057983398438 L 1036.78125 60.531005859375 C 1031.905395507813 52.1368408203125 1025.946533203125 44.4183349609375 1019.070373535156 37.590087890625 C 1012.304321289063 30.871337890625 1004.682861328125 25.045166015625 996.417724609375 20.273193359375 C 988.15234375 15.5013427734375 979.2960205078125 11.81396484375 970.0943603515625 9.31396484375 C 960.7428588867188 6.773193359375 951.0792236328125 5.4718017578125 941.371826171875 5.446533203125 L 389.1936645507813 4.0003662109375 C 389.0953369140625 4 389.0040283203125 4 388.9057006835938 4 M 388.9057006835938 -0.0001220703125 C 389.0084838867188 -0.0001220703125 389.1038818359375 0 389.2066650390625 0.0003662109375 L 941.38232421875 1.446533203125 C 982.1356811523438 1.5531005859375 1019.7705078125 23.2816162109375 1040.239990234375 58.5218505859375 L 1317.579833984375 535.996826171875 C 1338.210815429688 571.5153198242188 1338.26806640625 615.3556518554688 1317.73046875 650.927978515625 L 1043.494995117188 1125.91748046875 C 1023.008544921875 1161.400756835938 985.145263671875 1183.253173828125 944.18798828125 1183.253173828125 C 944.085205078125 1183.253173828125 943.9893188476563 1183.253051757813 943.8865356445313 1183.252807617188 L 391.7109985351563 1181.806640625 C 350.95751953125 1181.699829101563 313.3226928710938 1159.971435546875 292.8536376953125 1124.731323242188 L 15.5135498046875 647.2561645507813 C -5.1173095703125 611.7376708984375 -5.1746826171875 567.8973388671875 15.363037109375 532.324951171875 L 289.59814453125 57.335693359375 C 310.0846557617188 21.852294921875 347.9487915039063 -0.0001220703125 388.9057006835938 -0.0001220703125 Z" stroke="none" fill="#fff"/>
    </g>
    <g id="Detalhes-2" data-name="Detalhes" transform="translate(-157.422 -81.698) rotate(30)" fill="none" opacity="0.1">
      <path d="M442.369,84.379C473.741,32.028,531.78-.158,594.524,0l843.464,2.128c62.252.157,119.74,32.134,151.008,84L2012.64,788.806a163.432,163.432,0,0,1,.23,169.14l-418.9,699.024c-31.372,52.351-89.411,84.536-152.155,84.378l-843.463-2.128c-62.252-.157-119.74-32.134-151.007-84L23.7,952.542a163.432,163.432,0,0,1-.23-169.14Z" stroke="none"/>
      <path d="M 594.063720703125 4 C 578.9637451171875 4 563.9287109375 5.921630859375 549.3763427734375 9.711669921875 C 535.0616455078125 13.4398193359375 521.286865234375 18.9544677734375 508.4345703125 26.1026611328125 C 495.5860595703125 33.2490234375 483.746337890625 41.979248046875 473.2442626953125 52.0513916015625 C 462.5732421875 62.2852783203125 453.3397216796875 73.853759765625 445.80029296875 86.434814453125 L 26.8984375 785.4581909179688 C 19.3431396484375 798.0658569335938 13.5545654296875 811.5800170898438 9.6934814453125 825.6253051757813 C 5.8963623046875 839.438720703125 3.9805908203125 853.6945190429688 4 867.996337890625 C 4.01953125 882.2984619140625 5.9739990234375 896.5492553710938 9.8087158203125 910.3532104492188 C 13.7078857421875 924.3887329101563 19.533447265625 937.88818359375 27.1229248046875 950.4766235351563 L 450.7674560546875 1653.15869140625 C 458.3016357421875 1665.6552734375 467.5106201171875 1677.147094726563 478.138671875 1687.315063476563 C 488.60107421875 1697.32421875 500.387451171875 1706.004760742188 513.1707763671875 1713.115356445313 C 525.958740234375 1720.228515625 539.6627197265625 1725.72509765625 553.90185546875 1729.452392578125 C 568.3760986328125 1733.241333007813 583.333984375 1735.181640625 598.3594970703125 1735.219482421875 L 1441.826171875 1737.34765625 C 1441.978759765625 1737.34814453125 1442.121337890625 1737.34814453125 1442.273681640625 1737.34814453125 C 1457.373779296875 1737.34814453125 1472.40869140625 1735.426635742188 1486.960815429688 1731.636596679688 C 1501.275634765625 1727.908447265625 1515.050048828125 1722.393676757813 1527.90234375 1715.24560546875 C 1540.750854492188 1708.099243164063 1552.59033203125 1699.369018554688 1563.092407226563 1689.296875 C 1573.76318359375 1679.06298828125 1582.99658203125 1667.494506835938 1590.5361328125 1654.913452148438 L 2009.4384765625 955.8897705078125 C 2016.993774414063 943.2821655273438 2022.782104492188 929.7679443359375 2026.643188476563 915.72265625 C 2030.440551757813 901.9092407226563 2032.356079101563 887.6534423828125 2032.336669921875 873.3516235351563 C 2032.317138671875 859.0494995117188 2030.362915039063 844.7987060546875 2026.528198242188 830.9950561523438 C 2022.629028320313 816.9595336914063 2016.803466796875 803.4597778320313 2009.213989257813 790.871337890625 L 1585.569580078125 88.1895751953125 C 1578.035278320313 75.6929931640625 1568.826049804688 64.2010498046875 1558.1982421875 54.033203125 C 1547.735595703125 44.0240478515625 1535.94921875 35.343505859375 1523.165771484375 28.23291015625 C 1510.3779296875 21.1197509765625 1496.674072265625 15.6231689453125 1482.434814453125 11.8958740234375 C 1467.960571289063 8.10693359375 1453.0029296875 6.1666259765625 1437.977416992188 6.1287841796875 L 594.5106201171875 4.0006103515625 C 594.35791015625 4 594.216064453125 4 594.063720703125 4 M 594.0635986328125 0 C 594.2205810546875 0 594.366943359375 0.0001220703125 594.52392578125 0.0006103515625 L 1437.987426757813 2.1287841796875 C 1500.2392578125 2.285888671875 1557.727416992188 34.2626953125 1588.994995117188 86.124267578125 L 2012.639526367188 788.8060913085938 C 2044.153686523438 841.0771484375 2044.241088867188 905.5953369140625 2012.869506835938 957.9458618164063 L 1593.967163085938 1656.969482421875 C 1562.673828125 1709.189086914063 1504.836791992188 1741.348266601563 1442.273681640625 1741.348266601563 C 1442.116821289063 1741.348266601563 1441.9697265625 1741.348022460938 1441.812744140625 1741.34765625 L 598.3494873046875 1739.219482421875 C 536.097412109375 1739.062377929688 478.6090087890625 1707.085571289063 447.3419189453125 1655.223999023438 L 23.6973876953125 952.5418701171875 C -7.8167724609375 900.2711181640625 -7.9044189453125 835.752685546875 23.4674072265625 783.4021606445313 L 442.3692626953125 84.3787841796875 C 473.66259765625 32.1591796875 531.5006103515625 0 594.0635986328125 0 Z" stroke="none" fill="#fff"/>
    </g>
  </g>
</svg>
