<svg xmlns="http://www.w3.org/2000/svg" xmlns:xlink="http://www.w3.org/1999/xlink" width="156.269" height="152.314" viewBox="0 0 156.269 152.314">
  <defs>
    <filter id="Caminho_27" x="0" y="0" width="156.269" height="152.314" filterUnits="userSpaceOnUse">
      <feOffset dy="3" input="SourceAlpha"/>
      <feGaussianBlur stdDeviation="3" result="blur"/>
      <feFlood flood-opacity="0.6"/>
      <feComposite operator="in" in2="blur"/>
      <feComposite in="SourceGraphic"/>
    </filter>
  </defs>
  <g id="Logo" transform="translate(9.272 5.826)">
    <g id="Grupo_4" data-name="Grupo 4" transform="translate(-0.097 0.062)">
      <g transform="matrix(1, 0, 0, 1, -9.18, -5.89)" filter="url(#Caminho_27)">
        <g id="Caminho_27-2" data-name="Caminho 27" transform="matrix(0.87, -0.48, 0.48, 0.87, 9.18, 57.16)" fill="#2d132c">
          <path d="M 30.45491027832031 93.01530456542969 C 27.94755554199219 93.01530456542969 25.62275695800781 91.65841674804688 24.38774108886719 89.47413635253906 L 2.813171863555908 51.31700134277344 C 1.573002576828003 49.12363052368164 1.591879487037659 46.38504409790039 2.862433433532715 44.16993713378906 L 24.90163421630859 5.746199607849121 C 26.18346405029297 3.511399745941162 28.55794143676758 2.113476753234863 31.09844779968262 2.09795355796814 L 74.61692810058594 1.831907391548157 L 74.66012573242188 1.831768989562988 C 77.16748046875 1.831768989562988 79.49229431152344 3.188676595687866 80.72734069824219 5.372953414916992 L 102.3019104003906 43.53005981445313 C 103.5420455932617 45.72341537475586 103.5231704711914 48.46201324462891 102.2526321411133 50.67710876464844 L 80.21343231201172 89.10087585449219 C 78.93161773681641 91.33567810058594 76.55714416503906 92.73359680175781 74.01663208007813 92.74913787841797 L 30.49810981750488 93.01516723632813 L 30.45491027832031 93.01530456542969 Z" stroke="none"/>
          <path d="M 74.66011047363281 3.831771850585938 L 74.62914276123047 3.831871032714844 L 31.11065673828125 4.097923278808594 C 29.27970886230469 4.109107971191406 27.5653076171875 5.121986389160156 26.63651275634766 6.741287231445313 L 4.597305297851563 45.16501998901367 C 3.676307678222656 46.77072143554688 3.659759521484375 48.75082015991211 4.554145812988281 50.33262252807617 L 26.12870788574219 88.48976898193359 C 27.00950622558594 90.04756927490234 28.66719055175781 91.01528930664063 30.45487213134766 91.01528930664063 L 30.48589324951172 91.01519012451172 L 74.00437927246094 90.74916839599609 C 75.83537292480469 90.73796844482422 77.54977416992188 89.72509002685547 78.47856140136719 88.10578918457031 L 100.5177612304688 49.68202209472656 C 101.4387435913086 48.07633972167969 101.4552764892578 46.09622192382813 100.5609436035156 44.51443862915039 L 78.98635864257813 6.357322692871094 C 78.10554504394531 4.799507141113281 76.44783020019531 3.831771850585938 74.66011047363281 3.831771850585938 M 74.66011047363281 -0.1682281494140625 C 77.89802551269531 -0.1682281494140625 80.87242126464844 1.566078186035156 82.46830749511719 4.388572692871094 L 104.0428924560547 42.54568862915039 C 105.6351776123047 45.36188888549805 105.6141052246094 48.83632278442383 103.9875106811523 51.67220306396484 L 81.94831085205078 90.09597015380859 C 80.30887603759766 92.95425415039063 77.28799438476563 94.72915649414063 74.02885437011719 94.74910736083984 L 30.51034545898438 95.01512145996094 C 30.49204254150391 95.01523590087891 30.47315979003906 95.01528930664063 30.45487976074219 95.01528930664063 C 27.21696472167969 95.01528930664063 24.24263000488281 93.28101348876953 22.64674377441406 90.45850372314453 L 1.072174072265625 52.30137252807617 C -0.5201416015625 49.48517227172852 -0.499053955078125 46.01072311401367 1.127555847167969 43.17483901977539 L 23.16675567626953 4.751106262207031 C 24.80620574951172 1.892837524414063 27.82707214355469 0.1179046630859375 31.08621215820313 0.097991943359375 L 74.60469055175781 -0.168060302734375 C 74.62299346923828 -0.1681747436523438 74.64182281494141 -0.1682281494140625 74.66011047363281 -0.1682281494140625 Z" stroke="none" fill="#fff"/>
        </g>
      </g>
      <g id="Grupo_1" data-name="Grupo 1" transform="translate(39.94 38.176)">
        <path id="Caminho_28" data-name="Caminho 28" d="M1787.062-856.443l22.976-39.163,2.8,4.626-20.421,34.538Z" transform="translate(-1781.014 895.605)" fill="#fff"/>
        <path id="Caminho_29" data-name="Caminho 29" d="M1759.234-843.774l2.7-4.624,14.109.041,12.291-20.865,8.3,14.133-5.375-.024-2.924-4.978-9.681,16.437Z" transform="translate(-1759.234 893.248)" fill="#fff"/>
        <path id="Caminho_30" data-name="Caminho 30" d="M1753.324-855.961l-2.732-4.65,13.993-.019-17.126-29.187,2.578-4.776,22.862,38.71Z" transform="translate(-1714.617 905.477)" fill="#fff"/>
      </g>
    </g>
  </g>
</svg>
