<svg xmlns="http://www.w3.org/2000/svg" xmlns:xlink="http://www.w3.org/1999/xlink" width="538.181" height="540.349" viewBox="0 0 538.181 540.349">
  <defs>
    <filter id="bg-menu" x="0" y="0" width="538.181" height="540.349" filterUnits="userSpaceOnUse">
      <feOffset dy="3" input="SourceAlpha"/>
      <feGaussianBlur stdDeviation="3" result="blur"/>
      <feFlood flood-opacity="0.161"/>
      <feComposite operator="in" in2="blur"/>
      <feComposite in="SourceGraphic"/>
    </filter>
  </defs>
  <g transform="matrix(1, 0, 0, 1, 0, 0)" filter="url(#bg-menu)">
    <g id="bg-menu-2" data-name="bg-menu" transform="translate(262.67 6) rotate(47)" fill="#2d132c">
      <path d="M 276.7745361328125 341.3529052734375 L 276.7005920410156 341.3528137207031 L 114.8386001586914 340.9288635253906 C 104.8870391845703 340.9028015136719 95.59992980957031 335.5409240722656 90.60160064697266 326.9356384277344 L 9.303486824035645 186.9709625244141 C 4.259541988372803 178.2871856689453 4.245430946350098 167.4900207519531 9.266597747802734 158.7930755615234 L 89.654541015625 19.5571346282959 C 94.66054534912109 10.88641262054443 103.989875793457 5.500023365020752 114.0017623901367 5.500023365020752 L 275.9377136230469 5.924023628234863 C 285.8892517089844 5.950078964233398 295.1763610839844 11.31196784973145 300.1748046875 19.91730117797852 L 381.4728698730469 159.8818511962891 C 386.5168151855469 168.5656890869141 386.5309753417969 179.3628082275391 381.509765625 188.0597381591797 L 301.1217041015625 327.2958068847656 C 296.1156616210938 335.9665222167969 286.786376953125 341.3529052734375 276.7745361328125 341.3529052734375 Z" stroke="none"/>
      <path d="M 114.0018615722656 0 L 114.0018615722656 11 C 105.9486389160156 11 98.4443359375 15.3326416015625 94.41763305664063 22.30712890625 L 14.02975463867188 161.5430603027344 C 9.990814208984375 168.5386505126953 10.002197265625 177.2235260009766 14.05938720703125 184.2084655761719 L 95.35745239257813 324.1731262207031 C 99.37799072265625 331.0949401855469 106.8482666015625 335.4078674316406 114.85302734375 335.4289245605469 L 276.7746276855469 335.8528747558594 C 284.8277587890625 335.8528747558594 292.3318481445313 331.5202941894531 296.3585815429688 324.5458068847656 L 376.7465515136719 185.3097686767578 C 380.7854919433594 178.3141784667969 380.7741394042969 169.6292877197266 376.7169799804688 162.6443481445313 L 295.4189147949219 22.6798095703125 C 291.3983154296875 15.7579345703125 283.9280395507813 11.4449462890625 275.9232788085938 11.42401123046875 L 114.06298828125 11.00006103515625 L 114.0018615722656 0 M 114.0018310546875 0 C 114.0319519042969 0 114.0599670410156 3.0517578125e-05 114.090087890625 0.0001220703125 L 275.9520874023438 0.424041748046875 C 287.8983154296875 0.455291748046875 298.9303894042969 6.82464599609375 304.9307250976563 17.15481567382813 L 386.2287902832031 157.1194152832031 C 392.2763977050781 167.5311126708984 392.2931518554688 180.3822937011719 386.2728576660156 190.8097686767578 L 305.8848571777344 330.0458068847656 C 299.879638671875 340.4472045898438 288.7805480957031 346.8528747558594 276.7746276855469 346.8528747558594 C 276.7445068359375 346.8528747558594 276.7163391113281 346.8528442382813 276.6862182617188 346.8527526855469 L 114.82421875 346.4288940429688 C 102.8779296875 346.3975219726563 91.84585571289063 340.0281677246094 85.84561157226563 329.6980590820313 L 4.547576904296875 189.7334136962891 C -1.500091552734375 179.3217010498047 -1.51690673828125 166.4705810546875 4.503448486328125 156.0430603027344 L 84.89132690429688 16.80712890625 C 90.8966064453125 6.405670166015625 101.9959106445313 0 114.0018310546875 0 Z" stroke="none" fill="#fff"/>
    </g>
  </g>
</svg>
