<svg xmlns="http://www.w3.org/2000/svg" xmlns:xlink="http://www.w3.org/1999/xlink" width="221.285" height="71.259" viewBox="0 0 221.285 71.259">
  <defs>
    <filter id="Caminho_5094" x="0" y="0" width="221.285" height="71.259" filterUnits="userSpaceOnUse">
      <feOffset dy="3" input="SourceAlpha"/>
      <feGaussianBlur stdDeviation="3" result="blur"/>
      <feFlood flood-opacity="0.6"/>
      <feComposite operator="in" in2="blur"/>
      <feComposite in="SourceGraphic"/>
    </filter>
  </defs>
  <g transform="matrix(1, 0, 0, 1, 0, 0)" filter="url(#Caminho_5094)">
    <g id="Caminho_5094-2" data-name="Caminho 5094" transform="translate(9 6.05)" fill="#ee4540">
      <path d="M 17.16478538513184 50.7122802734375 C 16.26029205322266 50.71221923828125 15.4152307510376 50.21025848388672 14.95934200286865 49.40222549438477 L 2.847758769989014 27.9359188079834 C 2.384981155395508 27.11566925048828 2.384981155395508 26.09661293029785 2.847786664962769 25.27636337280273 L 14.95931434631348 3.810057640075684 C 15.41525840759277 3.002002239227295 16.26039695739746 2.500002145767212 17.16492462158203 2.500002145767212 L 186.1206207275391 2.452835559844971 C 187.0244750976563 2.452835559844971 187.8696136474609 2.954835414886475 188.3255615234375 3.762918710708618 L 200.4371185302734 25.22919654846191 C 200.89990234375 26.04944610595703 200.89990234375 27.06850242614746 200.4370880126953 27.88875198364258 L 188.3255310058594 49.35503005981445 C 187.8695983886719 50.16313934326172 187.0244750976563 50.66511154174805 186.1199188232422 50.66511154174805 L 17.16423034667969 50.7122802734375 L 17.16478538513184 50.7122802734375 Z" stroke="none"/>
      <path d="M 186.114501953125 4.952823638916016 L 17.17036437988281 4.999996185302734 C 17.16474914550781 5.003173828125 17.15110778808594 5.012943267822266 17.13665771484375 5.038558959960938 L 5.025070190429688 26.50494003295898 C 4.991455078125 26.56452751159668 4.991455078125 26.64776420593262 5.025100708007813 26.70741081237793 L 17.13662719726563 48.17373275756836 C 17.15107727050781 48.1993408203125 17.16473388671875 48.20911026000977 17.17033386230469 48.2122917175293 L 186.1144866943359 48.16511917114258 C 186.1200866699219 48.16194152832031 186.1337432861328 48.15217208862305 186.148193359375 48.12655639648438 L 198.2597503662109 26.66020393371582 C 198.2933959960938 26.60058784484863 198.2933959960938 26.5173511505127 198.2597503662109 26.45770454406738 L 186.1481628417969 4.991321563720703 C 186.1337432861328 4.965763092041016 186.1201019287109 4.956005096435547 186.114501953125 4.952823638916016 M 186.1199340820313 -0.04717636108398438 C 187.9300384521484 -0.04717636108398438 189.6019287109375 0.9375572204589844 190.5028686523438 2.534412384033203 L 202.6144256591797 24.00073432922363 C 203.5083312988281 25.58505821228027 203.5083312988281 27.53288078308105 202.6144256591797 29.1172046661377 L 190.5028686523438 50.58352661132813 C 189.6019287109375 52.18038177490234 187.9300384521484 53.16511535644531 186.1199340820313 53.16511535644531 L 17.16493225097656 53.2122917175293 C 15.35481262207031 53.2122917175293 13.68292236328125 52.22755813598633 12.78195190429688 50.63070297241211 L 0.6704254150390625 29.16438102722168 C -0.223480224609375 27.58005714416504 -0.223480224609375 25.63220405578613 0.6704254150390625 24.04791069030762 L 12.781982421875 2.581588745117188 C 13.68292236328125 0.9847335815429688 15.35481262207031 0 17.16493225097656 0 L 186.1199340820313 -0.04717636108398438 Z" stroke="none" fill="#fff"/>
    </g>
  </g>
</svg>
