<svg xmlns="http://www.w3.org/2000/svg" width="65.942" height="63.985" viewBox="0 0 65.942 63.985">
  <g id="icon-github" transform="translate(-133.166 -569.338)">
    <g id="Caminho_5128" data-name="Caminho 5128" transform="matrix(0.875, -0.485, 0.485, 0.875, 133.166, 593.723)" fill="#2d132c">
      <path d="M 14.65477848052979 43.77773666381836 C 13.64803886413574 43.77773666381836 12.71335887908936 43.23376846313477 12.21551895141602 42.35810852050781 L 1.872118592262268 24.16501808166504 C 1.372928619384766 23.2869987487793 1.378198623657227 22.19184875488281 1.885868668556213 21.30692863464355 L 12.36896896362305 3.033698320388794 C 12.88112831115723 2.140948295593262 13.83195877075195 1.583928346633911 14.85040855407715 1.580008387565613 L 35.63142013549805 1.500018358230591 L 35.64236831665039 1.499998331069946 C 36.64912033081055 1.499998331069946 37.58378982543945 2.043968439102173 38.08163833618164 2.919638395309448 L 48.4250602722168 21.11270904541016 C 48.92422866821289 21.99071884155273 48.91894912719727 23.08587837219238 48.41128921508789 23.97079849243164 L 37.92819976806641 42.24404907226563 C 37.41604995727539 43.13678741455078 36.4652099609375 43.69380950927734 35.44674682617188 43.69773864746094 L 14.66572856903076 43.77771759033203 L 14.65477848052979 43.77773666381836 Z" stroke="none"/>
      <path d="M 35.64236831665039 3 L 35.63719940185547 3.000007629394531 L 14.8561897277832 3.079998016357422 C 14.3712272644043 3.081859588623047 13.91674041748047 3.350128173828125 13.67006683349609 3.780109405517578 L 3.186958312988281 22.05335807800293 C 2.942237854003906 22.47992897033691 2.938079833984375 23.0049991607666 3.176090240478516 23.42365837097168 L 13.51950836181641 41.61674880981445 C 13.75129699707031 42.02445983886719 14.18629837036133 42.27772903442383 14.65475845336914 42.27772903442383 L 14.65995788574219 42.27771759033203 L 35.44095993041992 42.19775009155273 C 35.92591857910156 42.19587707519531 36.38041687011719 41.92760848999023 36.62709045410156 41.49762725830078 L 47.11018753051758 23.22437858581543 C 47.35491943359375 22.79779815673828 47.35907745361328 22.27270889282227 47.12107849121094 21.85407829284668 L 36.77765655517578 3.661006927490234 C 36.54584884643555 3.253288269042969 36.1108283996582 3 35.64236831665039 3 M 35.64236450195313 -3.814697265625e-06 C 37.19229888916016 -3.814697265625e-06 38.61892318725586 0.8297195434570313 39.38562774658203 2.178279876708984 L 49.72904968261719 20.37134742736816 C 50.49242782592773 21.71409797668457 50.48609924316406 23.3685474395752 49.71238708496094 24.71721839904785 L 39.22929000854492 42.9904670715332 C 38.44947814941406 44.34977722167969 37.00883865356445 45.19172668457031 35.45252990722656 45.19772720336914 L 14.6714973449707 45.2776985168457 C 14.66598892211914 45.2777214050293 14.66026306152344 45.27772903442383 14.65475463867188 45.27772903442383 C 13.10482406616211 45.27772903442383 11.67822647094727 44.44802856445313 10.91152954101563 43.09946823120117 L 0.5681190490722656 24.9063777923584 C -0.1952705383300781 23.56363868713379 -0.1889419555664063 21.9091682434082 0.5847702026367188 20.56050872802734 L 11.06786727905273 2.287269592285156 C 11.84768676757813 0.9279594421386719 13.288330078125 0.08600997924804688 14.84463882446289 0.08001708984375 L 35.62564849853516 2.6702880859375e-05 C 35.63115692138672 7.62939453125e-06 35.63685607910156 -3.814697265625e-06 35.64236450195313 -3.814697265625e-06 Z" stroke="none" fill="#fff"/>
    </g>
    <g id="github-logo" transform="translate(156.673 585.97)">
      <path id="Caminho_5106" data-name="Caminho 5106" d="M18.313,10.253a9.772,9.772,0,0,0-3.572-3.572A9.6,9.6,0,0,0,9.815,5.365,9.6,9.6,0,0,0,4.888,6.681a9.771,9.771,0,0,0-3.572,3.572A9.6,9.6,0,0,0,0,15.179a9.538,9.538,0,0,0,1.872,5.77A9.612,9.612,0,0,0,6.709,24.5a.572.572,0,0,0,.511-.089.5.5,0,0,0,.166-.383q0-.038-.006-.69T7.373,22.2l-.294.051a3.75,3.75,0,0,1-.709.045,5.4,5.4,0,0,1-.888-.089,1.985,1.985,0,0,1-.856-.383,1.621,1.621,0,0,1-.562-.786l-.128-.294a3.193,3.193,0,0,0-.4-.652,1.542,1.542,0,0,0-.556-.486l-.089-.064a.938.938,0,0,1-.166-.153.7.7,0,0,1-.115-.179q-.038-.09.064-.147A.829.829,0,0,1,3.041,19l.255.038a1.865,1.865,0,0,1,.633.307,2.063,2.063,0,0,1,.62.664,2.253,2.253,0,0,0,.709.8,1.5,1.5,0,0,0,.837.275,3.634,3.634,0,0,0,.728-.064,2.542,2.542,0,0,0,.575-.192,2.071,2.071,0,0,1,.626-1.316,8.75,8.75,0,0,1-1.31-.23,5.216,5.216,0,0,1-1.2-.5,3.44,3.44,0,0,1-1.029-.856,4.115,4.115,0,0,1-.671-1.342,6.381,6.381,0,0,1-.262-1.917,3.727,3.727,0,0,1,1.01-2.633,3.435,3.435,0,0,1,.089-2.607,1.791,1.791,0,0,1,1.1.172,7.684,7.684,0,0,1,1.067.492q.339.2.543.345a9.229,9.229,0,0,1,4.908,0l.486-.307a6.878,6.878,0,0,1,1.175-.562,1.675,1.675,0,0,1,1.035-.14,3.4,3.4,0,0,1,.1,2.607,3.728,3.728,0,0,1,1.01,2.633,6.452,6.452,0,0,1-.262,1.923,3.955,3.955,0,0,1-.677,1.342,3.573,3.573,0,0,1-1.035.85,5.225,5.225,0,0,1-1.2.5,8.741,8.741,0,0,1-1.31.23,2.276,2.276,0,0,1,.664,1.815v2.7a.509.509,0,0,0,.16.383.555.555,0,0,0,.5.089,9.611,9.611,0,0,0,4.837-3.546,9.54,9.54,0,0,0,1.872-5.77A9.608,9.608,0,0,0,18.313,10.253Z" transform="translate(0 0)" fill="#fff"/>
    </g>
  </g>
</svg>
