<svg id="Icon-mause" xmlns="http://www.w3.org/2000/svg" width="17" height="28.014" viewBox="0 0 17 28.014">
  <g id="Caminho_5103" data-name="Caminho 5103" fill="none">
    <path d="M8.5,0a8.592,8.592,0,0,1,8.286,6.594A7.86,7.86,0,0,1,17,8.5c0,.493-.042,11.99-.18,12.761A8.421,8.421,0,0,1,8.5,28.014a8.585,8.585,0,0,1-8.375-7.04C.063,20.71,0,9.106,0,8.5A9.125,9.125,0,0,1,.293,6.278,8.416,8.416,0,0,1,8.5,0Z" stroke="none"/>
    <path d="M 8.5 2.000001907348633 C 7.027939796447754 2.000001907348633 5.578229904174805 2.501241683959961 4.417909622192383 3.41139030456543 C 3.305879592895508 4.283660888671875 2.533349990844727 5.460710525512695 2.242630004882813 6.725711822509766 L 2.240949630737305 6.733020782470703 L 2.23921012878418 6.740310668945313 C 2.069299697875977 7.45503044128418 2 7.964851379394531 2 8.500001907348633 C 2 9.3603515625 2.058542251586914 19.36073875427246 2.110281944274902 20.69105529785156 C 2.461036682128906 22.23463821411133 3.248898506164551 23.55673599243164 4.394269943237305 24.52117156982422 C 5.553879737854004 25.49759101867676 6.973620414733887 26.01370048522949 8.5 26.01370048522949 C 10.0369701385498 26.01370048522949 11.53654003143311 25.47167205810547 12.72246932983398 24.48745155334473 C 13.8553991317749 23.54721450805664 14.60750007629395 22.29486656188965 14.84298324584961 20.957763671875 C 14.94537258148193 19.87387847900391 15 10.27630424499512 15 8.500001907348633 C 15 7.840900421142578 14.90684986114502 7.299861907958984 14.86174011230469 7.141101837158203 L 14.85743999481201 7.125980377197266 L 14.85338020324707 7.110801696777344 C 14.44801998138428 5.594011306762695 13.62532997131348 4.306230545043945 12.47422981262207 3.38667106628418 C 11.33865928649902 2.479501724243164 9.964389801025391 2.000001907348633 8.5 2.000001907348633 M 8.5 1.9073486328125e-06 C 12.42920017242432 1.9073486328125e-06 15.73571014404297 2.666021347045898 16.78557014465332 6.59442138671875 C 16.89888000488281 6.993171691894531 17 7.734771728515625 17 8.500001907348633 C 17 8.992910385131836 16.95804023742676 20.48973083496094 16.82023048400879 21.26096153259277 C 16.19103050231934 24.96534156799316 12.70150947570801 28.01370048522949 8.5 28.01370048522949 C 4.411199569702148 28.01370048522949 0.9966907501220703 25.12668037414551 0.1248798370361328 20.97354125976563 C 0.0633392333984375 20.71014022827148 0 9.105611801147461 0 8.500001907348633 C 0 7.838081359863281 0.07566070556640625 7.193841934204102 0.2934398651123047 6.277751922607422 C 1.090840339660645 2.808061599731445 4.467490196228027 1.9073486328125e-06 8.5 1.9073486328125e-06 Z" stroke="none" fill="#fff"/>
  </g>
  <line id="Linha_1" data-name="Linha 1" y2="5" transform="translate(8.5 5.5)" fill="none" stroke="#fff" stroke-linecap="round" stroke-width="3"/>
</svg>
