<svg xmlns="http://www.w3.org/2000/svg" width="65.942" height="63.985" viewBox="0 0 65.942 63.985">
  <g id="icon-linkedin" transform="translate(-133.166 -569.338)">
    <g id="Caminho_5128" data-name="Caminho 5128" transform="matrix(0.875, -0.485, 0.485, 0.875, 133.166, 593.723)" fill="#2d132c">
      <path d="M 14.65477848052979 43.77773666381836 C 13.64803886413574 43.77773666381836 12.71335887908936 43.23376846313477 12.21551895141602 42.35810852050781 L 1.872118592262268 24.16501808166504 C 1.372928619384766 23.2869987487793 1.378198623657227 22.19184875488281 1.885868668556213 21.30692863464355 L 12.36896896362305 3.033698320388794 C 12.88112831115723 2.140948295593262 13.83195877075195 1.583928346633911 14.85040855407715 1.580008387565613 L 35.63142013549805 1.500018358230591 L 35.64236831665039 1.499998331069946 C 36.64912033081055 1.499998331069946 37.58378982543945 2.043968439102173 38.08163833618164 2.919638395309448 L 48.4250602722168 21.11270904541016 C 48.92422866821289 21.99071884155273 48.91894912719727 23.08587837219238 48.41128921508789 23.97079849243164 L 37.92819976806641 42.24404907226563 C 37.41604995727539 43.13678741455078 36.4652099609375 43.69380950927734 35.44674682617188 43.69773864746094 L 14.66572856903076 43.77771759033203 L 14.65477848052979 43.77773666381836 Z" stroke="none"/>
      <path d="M 35.64236831665039 3 L 35.63719940185547 3.000007629394531 L 14.8561897277832 3.079998016357422 C 14.3712272644043 3.081859588623047 13.91674041748047 3.350128173828125 13.67006683349609 3.780109405517578 L 3.186958312988281 22.05335807800293 C 2.942237854003906 22.47992897033691 2.938079833984375 23.0049991607666 3.176090240478516 23.42365837097168 L 13.51950836181641 41.61674880981445 C 13.75129699707031 42.02445983886719 14.18629837036133 42.27772903442383 14.65475845336914 42.27772903442383 L 14.65995788574219 42.27771759033203 L 35.44095993041992 42.19775009155273 C 35.92591857910156 42.19587707519531 36.38041687011719 41.92760848999023 36.62709045410156 41.49762725830078 L 47.11018753051758 23.22437858581543 C 47.35491943359375 22.79779815673828 47.35907745361328 22.27270889282227 47.12107849121094 21.85407829284668 L 36.77765655517578 3.661006927490234 C 36.54584884643555 3.253288269042969 36.1108283996582 3 35.64236831665039 3 M 35.64236450195313 -3.814697265625e-06 C 37.19229888916016 -3.814697265625e-06 38.61892318725586 0.8297195434570313 39.38562774658203 2.178279876708984 L 49.72904968261719 20.37134742736816 C 50.49242782592773 21.71409797668457 50.48609924316406 23.3685474395752 49.71238708496094 24.71721839904785 L 39.22929000854492 42.9904670715332 C 38.44947814941406 44.34977722167969 37.00883865356445 45.19172668457031 35.45252990722656 45.19772720336914 L 14.6714973449707 45.2776985168457 C 14.66598892211914 45.2777214050293 14.66026306152344 45.27772903442383 14.65475463867188 45.27772903442383 C 13.10482406616211 45.27772903442383 11.67822647094727 44.44802856445313 10.91152954101563 43.09946823120117 L 0.5681190490722656 24.9063777923584 C -0.1952705383300781 23.56363868713379 -0.1889419555664063 21.9091682434082 0.5847702026367188 20.56050872802734 L 11.06786727905273 2.287269592285156 C 11.84768676757813 0.9279594421386719 13.288330078125 0.08600997924804688 14.84463882446289 0.08001708984375 L 35.62564849853516 2.6702880859375e-05 C 35.63115692138672 7.62939453125e-06 35.63685607910156 -3.814697265625e-06 35.64236450195313 -3.814697265625e-06 Z" stroke="none" fill="#fff"/>
    </g>
    <path id="linkedin" d="M10.676,0A10.676,10.676,0,1,0,21.352,10.676,10.677,10.677,0,0,0,10.676,0Zm-3.1,16.139h-2.6V8.317h2.6Zm-1.3-8.891H6.257a1.355,1.355,0,1,1,.034-2.7,1.356,1.356,0,1,1-.017,2.7Zm10.676,8.891h-2.6V11.955c0-1.052-.376-1.769-1.317-1.769a1.423,1.423,0,0,0-1.334.951,1.781,1.781,0,0,0-.086.635v4.368h-2.6s.034-7.089,0-7.823h2.6V9.424a2.581,2.581,0,0,1,2.343-1.291c1.711,0,2.993,1.118,2.993,3.521Zm0,0" transform="translate(155.324 590.324)" fill="#fff"/>
  </g>
</svg>
