<svg xmlns="http://www.w3.org/2000/svg" width="65.942" height="63.985" viewBox="0 0 65.942 63.985">
  <g id="icon-facebook" transform="translate(-133.166 -569.338)">
    <g id="Caminho_5128" data-name="Caminho 5128" transform="matrix(0.875, -0.485, 0.485, 0.875, 133.166, 593.723)" fill="#2d132c">
      <path d="M 14.65477848052979 43.77773666381836 C 13.64803886413574 43.77773666381836 12.71335887908936 43.23376846313477 12.21551895141602 42.35810852050781 L 1.872118592262268 24.16501808166504 C 1.372928619384766 23.2869987487793 1.378198623657227 22.19184875488281 1.885868668556213 21.30692863464355 L 12.36896896362305 3.033698320388794 C 12.88112831115723 2.140948295593262 13.83195877075195 1.583928346633911 14.85040855407715 1.580008387565613 L 35.63142013549805 1.500018358230591 L 35.64236831665039 1.499998331069946 C 36.64912033081055 1.499998331069946 37.58378982543945 2.043968439102173 38.08163833618164 2.919638395309448 L 48.4250602722168 21.11270904541016 C 48.92422866821289 21.99071884155273 48.91894912719727 23.08587837219238 48.41128921508789 23.97079849243164 L 37.92819976806641 42.24404907226563 C 37.41604995727539 43.13678741455078 36.4652099609375 43.69380950927734 35.44674682617188 43.69773864746094 L 14.66572856903076 43.77771759033203 L 14.65477848052979 43.77773666381836 Z" stroke="none"/>
      <path d="M 35.64236831665039 3 L 35.63719940185547 3.000007629394531 L 14.8561897277832 3.079998016357422 C 14.3712272644043 3.081859588623047 13.91674041748047 3.350128173828125 13.67006683349609 3.780109405517578 L 3.186958312988281 22.05335807800293 C 2.942237854003906 22.47992897033691 2.938079833984375 23.0049991607666 3.176090240478516 23.42365837097168 L 13.51950836181641 41.61674880981445 C 13.75129699707031 42.02445983886719 14.18629837036133 42.27772903442383 14.65475845336914 42.27772903442383 L 14.65995788574219 42.27771759033203 L 35.44095993041992 42.19775009155273 C 35.92591857910156 42.19587707519531 36.38041687011719 41.92760848999023 36.62709045410156 41.49762725830078 L 47.11018753051758 23.22437858581543 C 47.35491943359375 22.79779815673828 47.35907745361328 22.27270889282227 47.12107849121094 21.85407829284668 L 36.77765655517578 3.661006927490234 C 36.54584884643555 3.253288269042969 36.1108283996582 3 35.64236831665039 3 M 35.64236450195313 -3.814697265625e-06 C 37.19229888916016 -3.814697265625e-06 38.61892318725586 0.8297195434570313 39.38562774658203 2.178279876708984 L 49.72904968261719 20.37134742736816 C 50.49242782592773 21.71409797668457 50.48609924316406 23.3685474395752 49.71238708496094 24.71721839904785 L 39.22929000854492 42.9904670715332 C 38.44947814941406 44.34977722167969 37.00883865356445 45.19172668457031 35.45252990722656 45.19772720336914 L 14.6714973449707 45.2776985168457 C 14.66598892211914 45.2777214050293 14.66026306152344 45.27772903442383 14.65475463867188 45.27772903442383 C 13.10482406616211 45.27772903442383 11.67822647094727 44.44802856445313 10.91152954101563 43.09946823120117 L 0.5681190490722656 24.9063777923584 C -0.1952705383300781 23.56363868713379 -0.1889419555664063 21.9091682434082 0.5847702026367188 20.56050872802734 L 11.06786727905273 2.287269592285156 C 11.84768676757813 0.9279594421386719 13.288330078125 0.08600997924804688 14.84463882446289 0.08001708984375 L 35.62564849853516 2.6702880859375e-05 C 35.63115692138672 7.62939453125e-06 35.63685607910156 -3.814697265625e-06 35.64236450195313 -3.814697265625e-06 Z" stroke="none" fill="#fff"/>
    </g>
    <g id="instagram" transform="translate(151.138 586.219)" style="isolation: isolate">
      <path id="Caminho_5125" data-name="Caminho 5125" d="M212.712,209.856A2.856,2.856,0,1,1,209.856,207,2.856,2.856,0,0,1,212.712,209.856Zm0,0" transform="translate(-194.936 -194.936)" fill="#2d132c"/>
      <path id="Caminho_5126" data-name="Caminho 5126" d="M149.187,137.46a2.837,2.837,0,0,0-1.626-1.626,4.741,4.741,0,0,0-1.591-.295c-.9-.041-1.174-.05-3.462-.05s-2.559.009-3.462.05a4.744,4.744,0,0,0-1.591.3,2.838,2.838,0,0,0-1.626,1.626,4.742,4.742,0,0,0-.295,1.591c-.041.9-.05,1.174-.05,3.462s.009,2.558.05,3.462a4.741,4.741,0,0,0,.295,1.591,2.837,2.837,0,0,0,1.626,1.626,4.734,4.734,0,0,0,1.591.3c.9.041,1.174.05,3.462.05s2.559-.009,3.462-.05a4.734,4.734,0,0,0,1.591-.3,2.837,2.837,0,0,0,1.626-1.626,4.745,4.745,0,0,0,.3-1.591c.041-.9.05-1.174.05-3.462s-.009-2.559-.05-3.462A4.735,4.735,0,0,0,149.187,137.46Zm-6.679,9.452a4.4,4.4,0,1,1,4.4-4.4A4.4,4.4,0,0,1,142.508,146.912Zm4.573-7.944a1.028,1.028,0,1,1,1.028-1.028A1.028,1.028,0,0,1,147.082,138.967Zm0,0" transform="translate(-127.589 -127.592)" fill="#2d132c"/>
      <path id="Caminho_5127" data-name="Caminho 5127" d="M14.92,0A14.92,14.92,0,1,0,29.84,14.92,14.922,14.922,0,0,0,14.92,0Zm8.516,18.452a6.286,6.286,0,0,1-.4,2.08,4.381,4.381,0,0,1-2.506,2.506,6.29,6.29,0,0,1-2.079.4c-.914.042-1.205.052-3.532.052s-2.619-.01-3.532-.052a6.29,6.29,0,0,1-2.079-.4A4.381,4.381,0,0,1,6.8,20.532a6.284,6.284,0,0,1-.4-2.079c-.042-.914-.052-1.206-.052-3.532s.01-2.619.052-3.532a6.286,6.286,0,0,1,.4-2.08A4.384,4.384,0,0,1,9.308,6.8a6.292,6.292,0,0,1,2.08-.4c.914-.042,1.205-.052,3.532-.052s2.619.01,3.532.052a6.293,6.293,0,0,1,2.08.4,4.382,4.382,0,0,1,2.506,2.506,6.285,6.285,0,0,1,.4,2.08c.042.914.051,1.205.051,3.532S23.477,17.538,23.436,18.452Zm0,0" fill="#2d132c"/>
    </g>
    <g id="facebook" transform="translate(155.587 590.587)">
      <path id="Caminho_5113" data-name="Caminho 5113" d="M291.116,508.668q-.13.021-.261.039Q290.986,508.689,291.116,508.668Zm0,0" transform="translate(-279.025 -487.978)" fill="#fff"/>
      <path id="Caminho_5114" data-name="Caminho 5114" d="M299.464,507.793l-.124.022Zm0,0" transform="translate(-287.164 -487.139)" fill="#fff"/>
      <path id="Caminho_5115" data-name="Caminho 5115" d="M277.916,510.34q-.152.017-.306.03Q277.763,510.357,277.916,510.34Zm0,0" transform="translate(-266.318 -489.582)" fill="#fff"/>
      <path id="Caminho_5116" data-name="Caminho 5116" d="M286.592,509.738l-.147.018Zm0,0" transform="translate(-274.795 -489.005)" fill="#fff"/>
      <path id="Caminho_5117" data-name="Caminho 5117" d="M306.774,506.41l-.11.023Zm0,0" transform="translate(-294.19 -485.812)" fill="#fff"/>
      <path id="Caminho_5118" data-name="Caminho 5118" d="M324.573,502.113l-.089.025Zm0,0" transform="translate(-311.286 -481.69)" fill="#fff"/>
      <path id="Caminho_5119" data-name="Caminho 5119" d="M319.156,503.543l-.1.025Zm0,0" transform="translate(-306.081 -483.062)" fill="#fff"/>
      <path id="Caminho_5120" data-name="Caminho 5120" d="M312.169,505.254l-.1.023Zm0,0" transform="translate(-299.373 -484.703)" fill="#fff"/>
      <path id="Caminho_5121" data-name="Caminho 5121" d="M273.645,511.09l-.165.012Zm0,0" transform="translate(-262.357 -490.302)" fill="#fff"/>
      <path id="Caminho_5122" data-name="Caminho 5122" d="M20.825,10.413A10.413,10.413,0,1,0,10.413,20.825l.183,0V12.717H8.359V10.11H10.6V8.191a3.132,3.132,0,0,1,3.343-3.436,18.415,18.415,0,0,1,2.006.1V7.183H14.576c-1.08,0-1.289.513-1.289,1.266V10.11h2.582l-.337,2.607H13.287v7.706a10.418,10.418,0,0,0,7.538-10.01Zm0,0" transform="translate(0 0)" fill="#fff"/>
      <path id="Caminho_5123" data-name="Caminho 5123" d="M265.217,511.43q-.163.011-.326.016Q265.054,511.441,265.217,511.43Zm0,0" transform="translate(-254.116 -490.628)" fill="#fff"/>
      <path id="Caminho_5124" data-name="Caminho 5124" d="M260.677,511.836l-.173,0Zm0,0" transform="translate(-249.908 -491.017)" fill="#fff"/>
    </g>
  </g>
</svg>
