<svg xmlns="http://www.w3.org/2000/svg" xmlns:xlink="http://www.w3.org/1999/xlink" width="364.892" height="353.968" viewBox="0 0 364.892 353.968">
  <defs>
    <filter id="Caminho_27" x="0" y="0" width="364.892" height="353.968" filterUnits="userSpaceOnUse">
      <feOffset dy="3" input="SourceAlpha"/>
      <feGaussianBlur stdDeviation="3" result="blur"/>
      <feFlood flood-opacity="0.6"/>
      <feComposite operator="in" in2="blur"/>
      <feComposite in="SourceGraphic"/>
    </filter>
  </defs>
  <g id="Grupo_16" data-name="Grupo 16" transform="translate(-10.249 183.88)">
    <g id="Grupo_4" data-name="Grupo 4" transform="translate(19.249 -177.88)">
      <g transform="matrix(1, 0, 0, 1, -9, -6)" filter="url(#Caminho_27)">
        <g id="Caminho_27-2" data-name="Caminho 27" transform="matrix(0.87, -0.48, 0.48, 0.87, 9, 134.56)" fill="#2d132c">
          <path d="M 187.3641967773438 231.1443176269531 L 77.80526733398438 231.1443176269531 C 71.76642608642578 231.1443176269531 66.14785003662109 227.890625 63.14219284057617 222.6530151367188 L 8.242885589599609 126.9867782592773 C 5.264347553253174 121.7964706420898 5.264347553253174 115.3478622436523 8.242885589599609 110.1575546264648 L 63.14223098754883 14.4913969039917 C 66.14796447753906 9.253743171691895 71.76654052734375 6.000012397766113 77.80534362792969 6.000012397766113 L 187.3641967773438 6.000012397766113 C 193.4029998779297 6.000012397766113 199.0216217041016 9.253705024719238 202.0273132324219 14.49135875701904 L 256.9266052246094 110.1575088500977 C 259.9051208496094 115.3478240966797 259.9051208496094 121.7964324951172 256.9266052246094 126.9867782592773 L 202.0272369384766 222.6529388427734 C 199.0215454101563 227.890625 193.4029998779297 231.1443176269531 187.3641967773438 231.1443176269531 Z" stroke="none"/>
          <path d="M 187.3641967773438 -1.52587890625e-05 L 187.3641967773438 11.99998474121094 L 77.80532836914063 12.00003051757813 C 73.90968322753906 12.00003051757813 70.28518676757813 14.09898376464844 68.34623718261719 17.47775268554688 L 13.44686889648438 113.1439819335938 C 11.52542114257813 116.4922103881836 11.52542114257813 120.6521224975586 13.44686889648438 124.0003967285156 L 68.34619140625 219.6665802001953 C 70.28514099121094 223.0453948974609 73.90963745117188 225.1443481445313 77.80528259277344 225.1443481445313 L 187.3641967773438 225.1443023681641 C 191.2598266601563 225.1443023681641 194.88427734375 223.0453491210938 196.8232421875 219.6665344238281 L 251.7225494384766 124.00048828125 C 253.6440124511719 120.6521682739258 253.6440124511719 116.4921188354492 251.7225952148438 113.1438903808594 L 196.8233337402344 17.47775268554688 C 194.8843231201172 14.09893798828125 191.2597808837891 11.99998474121094 187.3641967773438 11.99998474121094 L 187.3641967773438 -1.52587890625e-05 M 187.3641967773438 -1.52587890625e-05 C 195.5691375732422 -1.52587890625e-05 203.1474151611328 4.388580322265625 207.2312774658203 11.50498962402344 L 262.1305847167969 107.1711273193359 C 266.1824035644531 114.231803894043 266.1824035644531 122.9124374389648 262.1305847167969 129.9731750488281 L 207.2312316894531 225.6392974853516 C 203.1474151611328 232.7557525634766 195.5691375732422 237.1443023681641 187.3641967773438 237.1443023681641 L 77.80528259277344 237.1443481445313 C 69.60032653808594 237.1443481445313 62.02204895019531 232.7557983398438 57.93818664550781 225.6393432617188 L 3.03887939453125 129.9731750488281 C -1.01300048828125 122.912483215332 -1.01300048828125 114.231803894043 3.038909912109375 107.1711730957031 L 57.938232421875 11.50498962402344 C 62.0220947265625 4.388580322265625 69.60037231445313 3.0517578125e-05 77.80532836914063 3.0517578125e-05 L 187.3641967773438 -1.52587890625e-05 Z" stroke="none" fill="#fff"/>
        </g>
      </g>
      <g id="Grupo_1" data-name="Grupo 1" transform="translate(96.959 93.06)">
        <path id="Caminho_28" data-name="Caminho 28" d="M1787.062-793.734l60.54-101.872,7.365,12.033-53.807,89.841Z" transform="translate(-1771.125 895.605)" fill="#fff"/>
        <path id="Caminho_29" data-name="Caminho 29" d="M1759.234-803.026l7.115-12.028,37.177.107,32.386-54.276,21.866,36.764-14.163-.063-7.706-12.948L1810.4-802.713Z" transform="translate(-1759.234 931.719)" fill="#fff"/>
        <path id="Caminho_30" data-name="Caminho 30" d="M1762.915-794.1l-7.2-12.1,36.871-.05-45.128-75.923,6.793-12.423,60.24,100.7Z" transform="translate(-1660.922 922.905)" fill="#fff"/>
      </g>
    </g>
  </g>
</svg>
